<?xml version="1.0" standalone="no"?>
<!DOCTYPE svg PUBLIC "-//W3C//DTD SVG 20010904//EN"
 "http://www.w3.org/TR/2001/REC-SVG-20010904/DTD/svg10.dtd">
<svg version="1.0" xmlns="http://www.w3.org/2000/svg"
 width="256.000000pt" height="256.000000pt" viewBox="0 0 256.000000 256.000000"
 preserveAspectRatio="xMidYMid meet">
<metadata>
Created by potrace 1.14, written by Peter Selinger 2001-2017
</metadata>
<g transform="translate(0.000000,256.000000) scale(0.100000,-0.100000)"
fill="#000000" stroke="none">
<path d="M689 2484 c-120 -31 -224 -95 -333 -208 -98 -102 -143 -189 -181
-351 -39 -170 48 -416 216 -607 24 -28 44 -53 45 -57 0 -3 4 -26 7 -51 4 -25
9 -128 12 -230 2 -102 7 -196 9 -210 3 -13 8 -42 12 -65 57 -393 181 -561 456
-617 115 -23 404 -31 581 -16 182 16 349 89 421 184 49 64 101 210 120 339 3
22 8 51 10 65 15 75 25 227 30 457 4 171 2 166 86 253 54 56 120 150 159 229
23 44 27 58 37 121 3 19 7 42 10 51 6 22 6 137 0 184 -23 160 -77 276 -175
374 -108 106 -206 144 -371 144 -74 0 -116 -4 -142 -16 -65 -28 -44 -66 46
-83 16 -3 36 -9 45 -13 9 -5 19 -9 24 -10 4 0 19 -4 34 -7 27 -7 27 -7 -15
-25 -65 -28 -54 -53 43 -102 78 -39 150 -148 171 -259 27 -149 -16 -301 -115
-406 -89 -93 -37 -87 -694 -86 l-577 0 -43 30 c-50 36 -79 76 -108 152 -27 74
-30 135 -8 222 22 85 40 125 95 211 50 79 69 98 156 155 36 25 69 51 72 59 7
20 -24 56 -51 58 -48 3 -22 19 102 60 26 9 41 21 43 34 4 28 -16 41 -81 51
-46 7 -72 5 -148 -14z"/>
</g>
</svg>
